# xmcd CD database file generated by OrangeCD 6.3
#
# Track frame offsets:
#	150
#	23376
#	37813
#	55210
#	108335
#	128602
#	148242
#	189915
#	216716
#
# Disc length: 3327 seconds
#
# Revision: 0
# Processed by: cddbd v1.5.2PL0 Copyright (c) Steve Scherf et al.
# Submitted via: OrangeCD 6.3
#
DISCID=780cfd09
DTITLE=Janis Joplin - Live At Fillmore East 2/2/69
DYEAR=1900
DGENRE=
TTITLE0=Raise Your Hands
TTITLE1=As Good As You've Been (To This World)
TTITLE2=Maybe
TTITLE3=Summertime and To Love Somebody
TTITLE4=Your The Only One Who Really Knows
TTITLE5=Walk Right In
TTITLE6=Work Me Lord
TTITLE7=Piece Of My Heart
TTITLE8=Ball And Chain
EXTD=
EXTT0=
EXTT1=
EXTT2=
EXTT3=
EXTT4=
EXTT5=
EXTT6=
EXTT7=
EXTT8=
PLAYORDER=
